<svg width="181" height="26" viewBox="0 0 181 26" fill="none" xmlns="http://www.w3.org/2000/svg">
<path d="M8.26383 26C12.5478 26 15.4278 25.172 17.5518 23.66C20.6118 21.464 22.1238 17.828 22.1238 13.184C22.1238 8.54 20.6118 4.868 17.5518 2.672C15.4278 1.16 12.5478 0.331998 8.26383 0.331998H0.12783V26H8.26383ZM6.06783 5.552H8.22783C10.4238 5.552 12.1158 6.02 13.3758 6.884C15.2478 8.144 16.1838 10.34 16.1838 13.184C16.1838 15.992 15.2478 18.188 13.3758 19.448C12.1158 20.312 10.4238 20.816 8.22783 20.816H6.06783V5.552ZM48.1856 0.331998H32.9216V26H48.1856V20.816H38.8616V15.74H47.1776V10.592H38.8616V5.552H48.1856V0.331998ZM73.1409 26V20.816H65.2569V0.331998H59.3169V26H73.1409ZM88.91 26V0.331998H82.97V26H88.91ZM111.769 19.88L104.893 0.331998H98.5929L108.097 26H115.441L124.945 0.331998H118.609L111.769 19.88ZM155.335 26L148.495 16.1C148.819 15.992 149.143 15.848 149.503 15.668C152.131 14.3 153.355 11.456 153.355 8.396C153.355 5.624 152.455 3.644 150.979 2.42C149.323 1.016 147.019 0.331998 143.275 0.331998H134.671V26H140.611V16.28H141.727L148.063 26H155.335ZM142.447 5.3C143.671 5.3 145.255 5.336 146.263 6.02C146.983 6.56 147.415 7.424 147.415 8.756C147.415 10.052 147.019 10.916 146.299 11.42C145.363 12.176 143.563 12.176 142.447 12.176H140.611V5.3H142.447ZM180.549 0.331998H165.285V26H180.549V20.816H171.225V15.74H179.541V10.592H171.225V5.552H180.549V0.331998Z" fill="url(#paint0_linear)"/>
<defs>
<linearGradient id="paint0_linear" x1="-12" y1="12.8" x2="199.719" y2="12.8" gradientUnits="userSpaceOnUse">
<stop offset="0.0001" stop-color="#3AC1B0"/>
<stop offset="0.643779" stop-color="#2081AE"/>
<stop offset="1" stop-color="#D62D42"/>
</linearGradient>
</defs>
</svg>
